<?xml version="1.0" encoding="UTF-8"?>
<svg width="32px" height="29px" viewBox="0 0 32 29" version="1.1" xmlns="http://www.w3.org/2000/svg" xmlns:xlink="http://www.w3.org/1999/xlink">
    <!-- Generator: Sketch 58 (84663) - https://sketch.com -->
    <title>logo-outline</title>
    <desc>Created with Sketch.</desc>
    <g id="Site" stroke="none" stroke-width="1" fill="none" fill-rule="evenodd">
        <g id="Artboard-Copy-7" transform="translate(-484.000000, -952.000000)" stroke="#595850" stroke-width="1.44095784">
            <g id="Group-2" transform="translate(100.000000, 60.000000)">
                <path d="M400.528736,893.146362 C400.702032,893.243597 400.845163,893.386729 400.942399,893.560024 L414.874682,918.390452 C415.166747,918.910976 414.981544,919.569709 414.46102,919.861774 C414.2995,919.952402 414.117399,920 413.93219,920 L386.067623,920 C385.470759,920 384.986905,919.516146 384.986905,918.919282 C384.986905,918.734073 385.034502,918.551972 385.125131,918.390452 L399.057415,893.560024 C399.349479,893.0395 400.008212,892.854297 400.528736,893.146362 Z M403.14536,904.452922 L397.374989,904.452922 C396.986491,904.452922 396.627887,904.661447 396.435727,904.999094 L396.435727,904.999094 L393.537164,910.092219 C393.348556,910.423627 393.348556,910.829902 393.537164,911.161311 L393.537164,911.161311 L396.435727,916.254435 C396.627887,916.592082 396.986491,916.800607 397.374989,916.800607 L397.374989,916.800607 L403.14536,916.800607 C403.533858,916.800607 403.892462,916.592082 404.084622,916.254435 L404.084622,916.254435 L406.983184,911.161311 C407.171793,910.829902 407.171793,910.423627 406.983184,910.092219 L406.983184,910.092219 L404.084622,904.999094 C403.892462,904.661447 403.533858,904.452922 403.14536,904.452922 L403.14536,904.452922 Z" id="logo-outline"></path>
            </g>
        </g>
    </g>
</svg>