<?xml version="1.0" encoding="UTF-8"?>
<svg width="217px" height="15px" viewBox="0 0 217 15" version="1.1" xmlns="http://www.w3.org/2000/svg" xmlns:xlink="http://www.w3.org/1999/xlink">
    <!-- Generator: Sketch 58 (84663) - https://sketch.com -->
    <title>C.M.KENNEDY</title>
    <desc>Created with Sketch.</desc>
    <g id="Site" stroke="none" stroke-width="1" fill="none" fill-rule="evenodd">
        <g id="Artboard-Copy-8" transform="translate(-389.000000, -144.000000)" fill="#1C1510" fill-rule="nonzero">
            <g id="Group-2" transform="translate(100.000000, 60.000000)">
                <path d="M302.535,89.036 L301.221,89.144 C300.980999,88.135995 300.522003,87.3260031 299.844,86.714 C299.165997,86.1019969 298.287005,85.796 297.207,85.796 C296.414996,85.796 295.737003,85.9339986 295.173,86.21 C294.608997,86.4860014 294.150002,86.8699975 293.796,87.362 C293.441998,87.8540025 293.181001,88.4419966 293.013,89.126 C292.844999,89.8100034 292.761,90.5599959 292.761,91.376 C292.761,92.2760045 292.865999,93.0589967 293.076,93.725 C293.286001,94.3910033 293.579998,94.9429978 293.958,95.381 C294.336002,95.8190022 294.785997,96.1459989 295.308,96.362 C295.830003,96.5780011 296.408997,96.686 297.045,96.686 C298.293006,96.686 299.276996,96.3950029 299.997,95.813 C300.717004,95.2309971 301.238998,94.4120053 301.563,93.356 L302.769,93.77 C302.600999,94.3460029 302.370001,94.9039973 302.076,95.444 C301.781999,95.9840027 301.401002,96.4639979 300.933,96.884 C300.464998,97.3040021 299.895003,97.6429987 299.223,97.901 C298.550997,98.1590013 297.753005,98.288 296.829,98.288 C295.856995,98.288 294.951004,98.1500014 294.111,97.874 C293.270996,97.5979986 292.536003,97.1780028 291.906,96.614 C291.275997,96.0499972 290.781002,95.3390043 290.421,94.481 C290.060998,93.6229957 289.881,92.6120058 289.881,91.448 C289.881,90.2359939 290.057998,89.1830045 290.412,88.289 C290.766002,87.3949955 291.251997,86.6570029 291.87,86.075 C292.488003,85.4929971 293.210996,85.0580014 294.039,84.77 C294.867004,84.4819986 295.754995,84.338 296.703,84.338 C297.675005,84.338 298.505997,84.4819986 299.196,84.77 C299.886003,85.0580014 300.404998,85.3879981 300.753,85.76 L301.203,84.626 L302.535,84.626 L302.535,89.036 Z M312.3,96.722 C312.3,97.118002 312.162001,97.4539986 311.886,97.73 C311.609999,98.0060014 311.274002,98.144 310.878,98.144 C310.481998,98.144 310.146001,98.0060014 309.87,97.73 C309.593999,97.4539986 309.456,97.118002 309.456,96.722 C309.456,96.3379981 309.593999,96.0050014 309.87,95.723 C310.146001,95.4409986 310.481998,95.3 310.878,95.3 C311.274002,95.3 311.609999,95.4409986 311.886,95.723 C312.162001,96.0050014 312.3,96.3379981 312.3,96.722 Z M337.761,85.688 C336.680995,85.688 336.141,85.9639972 336.141,86.516 L336.141,96.128 C336.141,96.6800028 336.680995,96.956 337.761,96.956 L337.761,98 L331.857,98 L331.857,96.956 C332.925005,96.956 333.459,96.6800028 333.459,96.128 L333.459,86.696 L329.517,98 L327.177,98 L323.235,86.696 L323.235,96.128 C323.235,96.6800028 323.768995,96.956 324.837,96.956 L324.837,98 L320.139,98 L320.139,96.956 C321.207005,96.956 321.741,96.6800028 321.741,96.128 L321.741,86.516 C321.741,85.9639972 321.207005,85.688 320.139,85.688 L320.139,84.626 L325.503,84.626 L329.067,95.138 L332.631,84.626 L337.761,84.626 L337.761,85.688 Z M348.408,96.722 C348.408,97.118002 348.270001,97.4539986 347.994,97.73 C347.717999,98.0060014 347.382002,98.144 346.986,98.144 C346.589998,98.144 346.254001,98.0060014 345.978,97.73 C345.701999,97.4539986 345.564,97.118002 345.564,96.722 C345.564,96.3379981 345.701999,96.0050014 345.978,95.723 C346.254001,95.4409986 346.589998,95.3 346.986,95.3 C347.382002,95.3 347.717999,95.4409986 347.994,95.723 C348.270001,96.0050014 348.408,96.3379981 348.408,96.722 Z M382.248,85.688 C381.803998,85.7000001 381.399002,85.7839992 381.033,85.94 C380.666998,86.0960008 380.328002,86.3059987 380.016,86.57 L376.938,89.198 L381.42,96.038 C381.624001,96.3620016 381.854999,96.5959993 382.113,96.74 C382.371001,96.8840007 382.709998,96.956 383.13,96.956 L383.634,96.956 L383.634,98 L376.596,98 L376.596,96.956 L377.892,96.956 C378.096001,96.956 378.24,96.9200004 378.324,96.848 C378.408,96.7759996 378.45,96.6800006 378.45,96.56 C378.45,96.4039992 378.390001,96.230001 378.27,96.038 L374.994,90.836 L372.438,93.068 L372.438,96.128 C372.438,96.6800028 372.971995,96.956 374.04,96.956 L374.04,98 L368.082,98 L368.082,96.956 C369.150005,96.956 369.684,96.6800028 369.684,96.128 L369.684,86.516 C369.684,85.9639972 369.150005,85.688 368.082,85.688 L368.082,84.626 L374.04,84.626 L374.04,85.688 C372.971995,85.688 372.438,85.9639972 372.438,86.516 L372.438,91.322 L377.622,86.84 C377.826001,86.6719992 377.928,86.4800011 377.928,86.264 C377.928,86.0959992 377.865001,85.9580005 377.739,85.85 C377.612999,85.7419995 377.418001,85.688 377.154,85.688 L376.362,85.688 L376.362,84.626 L382.248,84.626 L382.248,85.688 Z M402.435,88.694 L401.175,88.766 C401.030999,86.9539909 400.263007,86.048 398.871,86.048 L394.839,86.048 L394.839,90.386 L396.891,90.386 C397.611004,90.386 398.024999,89.6600073 398.133,88.208 L399.267,88.208 L398.997,93.824 L397.899,93.824 C397.778999,92.3359926 397.401003,91.592 396.765,91.592 L394.839,91.592 L394.839,96.596 L398.223,96.596 C400.23901,96.596 401.354999,95.3120128 401.571,92.744 L402.867,92.87 L402.435,98 L390.483,98 L390.483,96.956 C391.551005,96.956 392.085,96.6800028 392.085,96.128 L392.085,86.516 C392.085,85.9639972 391.551005,85.688 390.483,85.688 L390.483,84.626 L402.435,84.626 L402.435,88.694 Z M424.8,85.688 C423.731995,85.688 423.198,85.9639972 423.198,86.516 L423.198,98 L419.868,98 L413.082,87.2 L413.082,96.128 C413.082,96.6800028 413.615995,96.956 414.684,96.956 L414.684,98 L409.986,98 L409.986,96.956 C411.054005,96.956 411.588,96.6800028 411.588,96.128 L411.588,86.516 C411.588,85.9639972 411.054005,85.688 409.986,85.688 L409.986,84.626 L414.81,84.626 L421.704,95.678 L421.704,86.516 C421.704,85.9639972 421.170005,85.688 420.102,85.688 L420.102,84.626 L424.8,84.626 L424.8,85.688 Z M446.373,85.688 C445.304995,85.688 444.771,85.9639972 444.771,86.516 L444.771,98 L441.441,98 L434.655,87.2 L434.655,96.128 C434.655,96.6800028 435.188995,96.956 436.257,96.956 L436.257,98 L431.559,98 L431.559,96.956 C432.627005,96.956 433.161,96.6800028 433.161,96.128 L433.161,86.516 C433.161,85.9639972 432.627005,85.688 431.559,85.688 L431.559,84.626 L436.383,84.626 L443.277,95.678 L443.277,86.516 C443.277,85.9639972 442.743005,85.688 441.675,85.688 L441.675,84.626 L446.373,84.626 L446.373,85.688 Z M465.084,88.694 L463.824,88.766 C463.679999,86.9539909 462.912007,86.048 461.52,86.048 L457.488,86.048 L457.488,90.386 L459.54,90.386 C460.260004,90.386 460.673999,89.6600073 460.782,88.208 L461.916,88.208 L461.646,93.824 L460.548,93.824 C460.427999,92.3359926 460.050003,91.592 459.414,91.592 L457.488,91.592 L457.488,96.596 L460.872,96.596 C462.88801,96.596 464.003999,95.3120128 464.22,92.744 L465.516,92.87 L465.084,98 L453.132,98 L453.132,96.956 C454.200005,96.956 454.734,96.6800028 454.734,96.128 L454.734,86.516 C454.734,85.9639972 454.200005,85.688 453.132,85.688 L453.132,84.626 L465.084,84.626 L465.084,88.694 Z M479.655,84.626 C480.747005,84.626 481.706996,84.7069992 482.535,84.869 C483.363004,85.0310008 484.055997,85.3399977 484.614,85.796 C485.172003,86.2520023 485.588999,86.8939959 485.865,87.722 C486.141001,88.5500041 486.279,89.6299933 486.279,90.962 C486.279,92.3180068 486.141001,93.4459955 485.865,94.346 C485.588999,95.2460045 485.172003,95.9659973 484.614,96.506 C484.055997,97.0460027 483.363004,97.4299989 482.535,97.658 C481.706996,97.8860011 480.747005,98 479.655,98 L472.635,98 L472.635,96.956 C473.703005,96.956 474.237,96.6800028 474.237,96.128 L474.237,86.516 C474.237,85.9639972 473.703005,85.688 472.635,85.688 L472.635,84.626 L479.655,84.626 Z M476.991,86.048 L476.991,96.596 L479.943,96.596 C480.615003,96.596 481.175998,96.4730012 481.626,96.227 C482.076002,95.9809988 482.435999,95.6210024 482.706,95.147 C482.976001,94.6729976 483.164999,94.0880035 483.273,93.392 C483.381001,92.6959965 483.435,91.9040044 483.435,91.016 C483.435,90.1279956 483.381001,89.3690031 483.273,88.739 C483.164999,88.1089968 482.976001,87.596002 482.706,87.2 C482.435999,86.803998 482.076002,86.5130009 481.626,86.327 C481.175998,86.1409991 480.615003,86.048 479.943,86.048 L476.991,86.048 Z M505.584,85.706 C505.163998,85.706 504.831001,85.7509995 504.585,85.841 C504.338999,85.9310004 504.168,86.0539992 504.072,86.21 L499.986,92.222 L499.986,96.128 C499.986,96.6800028 500.585994,96.956 501.786,96.956 L501.786,98 L495.432,98 L495.432,96.956 C496.632006,96.956 497.232,96.6800028 497.232,96.128 L497.232,92.222 L493.272,86.228 C493.139999,86.023999 492.954001,85.8830004 492.714,85.805 C492.473999,85.7269996 492.186002,85.688 491.85,85.688 L491.85,84.626 L498.456,84.626 L498.456,85.688 L497.034,85.688 C496.673998,85.688 496.494,85.8079988 496.494,86.048 C496.494,86.1200004 496.524,86.2039995 496.584,86.3 L499.5,90.926 L502.452,86.372 C502.5,86.2879996 502.524,86.2040004 502.524,86.12 C502.524,85.8319986 502.278002,85.688 501.786,85.688 L500.922,85.688 L500.922,84.626 L505.584,84.626 L505.584,85.706 Z" id="C.M.KENNEDY"></path>
            </g>
        </g>
    </g>
</svg>