<?xml version="1.0" encoding="UTF-8"?>
<svg width="262px" height="44px" viewBox="0 0 262 44" version="1.1" xmlns="http://www.w3.org/2000/svg" xmlns:xlink="http://www.w3.org/1999/xlink">
    <!-- Generator: Sketch 58 (84663) - https://sketch.com -->
    <title>sig</title>
    <desc>Created with Sketch.</desc>
    <g id="Site" stroke="none" stroke-width="1" fill="none" fill-rule="evenodd" stroke-linecap="round" stroke-linejoin="round">
        <g id="Artboard-Copy-7" transform="translate(-199.000000, -717.000000)" fill-rule="nonzero" stroke="#595850" stroke-width="1.71957672">
            <g id="Group-2" transform="translate(100.000000, 60.000000)">
                <g id="sig" transform="translate(100.000000, 658.000000)">
                    <path d="M16.192233,23.5813382 C17.758436,20.9561177 27.5822445,8.62311482 22.3279327,7.15086038 C14.4391034,4.94041597 -3.11560318,25.1416328 0.513186177,35.5142389 C7.44694767,55.3338453 43.2399663,23.4080722 44.3670945,22.2714844 C44.8823807,21.7518736 45.1300244,20.26156 45.7837302,20.5977823 C46.5120517,20.9723818 45.5479706,22.2656788 45.8320933,23.0249811 C46.0439066,23.5910407 46.682596,26.4144836 49.5540365,27.047398 C53.1283862,27.8352456 60.1924449,25.297405 61.3049075,25.521018 C65.3794411,26.3400285 75.4980507,28.6692949 76.5881696,28.8154927" id="Path"></path>
                    <path d="M101.488612,0.0807081653 C102.454108,5.1484097 87.1110692,27.7422218 96.8779969,39.5377394" id="Path-2"></path>
                    <path d="M133.435123,7.66066028 C135.288722,-2.2512344 90.9356834,15.0425924 90.6552786,25.6010624 C90.3671152,36.4516798 117.946858,31.0843729 132.177011,29.2064327 C138.257809,28.4039554 215.723586,21.3929561 259.944248,26.9876197" id="Path-3"></path>
                </g>
            </g>
        </g>
    </g>
</svg>